<svg height="480pt" viewBox="0 -4 480 479" width="480pt" xmlns="http://www.w3.org/2000/svg"><path d="m472 376.5c4.417969 0 8-3.582031 8-8v-32c0-4.417969-3.582031-8-8-8h-448c-13.253906 0-24 10.746094-24 24v96c0 13.253906 10.746094 24 24 24h448c4.417969 0 8-3.582031 8-8v-32c0-4.417969-3.582031-8-8-8-13.253906 0-24-10.746094-24-24s10.746094-24 24-24zm-8-16h-416v-16h416zm-448 88v-96c0-4.417969 3.582031-8 8-8h8v112h-8c-4.417969 0-8-3.582031-8-8zm448 8h-416v-16h416zm-416-32v-48h392.207031c-3.636719 4.710938-6.164062 10.179688-7.398437 16h-352.808594v16h352.800781c1.234375 5.820312 3.761719 11.289062 7.398438 16zm0 0"/><path d="m29.640625 88.140625 50.359375 15.558594v184.800781c0 4.417969 3.582031 8 8 8h304c4.417969 0 8-3.582031 8-8v-184.800781l40-12.34375v50.398437l-21.601562 21.035156 11.203124 11.453126 10.398438-10.160157v12.417969h16v-12.0625l10.03125 10.03125 11.3125-11.3125-21.34375-21.351562v-61.304688c.003906-3.40625-2.152344-6.441406-5.367188-7.558594l-208-72c-1.695312-.589844-3.539062-.589844-5.234374 0l-208 72c-3.265626 1.132813-5.433594 4.234375-5.375 7.691406.058593 3.457032 2.332031 6.484376 5.632812 7.507813zm354.359375 192.359375h-288v-171.335938l141.289062 50.855469c1.75.648438 3.671876.648438 5.421876 0l141.289062-50.855469zm-144-263.527344 182.289062 63.085938-182.289062 63.945312-182.28125-63.945312zm0 0"/></svg>