<svg id="Layer_5" enable-background="new 0 0 64 64" height="512" viewBox="0 0 64 64" width="512" xmlns="http://www.w3.org/2000/svg"><path d="m1 1v46h10.586l-7.051 7.051c-.99.99-1.535 2.306-1.535 3.707 0 2.89 2.352 5.242 5.242 5.242 1.4 0 2.717-.545 3.707-1.535l11.465-11.465-1.5-1.5 1.929-1.929c2.351 1.531 5.149 2.429 8.157 2.429 2.713 0 5.253-.735 7.452-2h23.548v-46zm9.535 59.051c-.612.612-1.427.949-2.293.949-1.788 0-3.242-1.454-3.242-3.242 0-.866.337-1.681.949-2.293l10.051-10.051 4.586 4.586zm9.965-12.965-1.586-1.586 1.729-1.729c.489.567 1.019 1.097 1.586 1.586zm11.5-.086c-7.168 0-13-5.832-13-13s5.832-13 13-13 13 5.832 13 13-5.832 13-13 13zm-18-22h2c1.209 0 2.364.314 3.399.893-.992 1.536-1.719 3.257-2.096 5.107h-10.232c.487-3.388 3.408-6 6.929-6zm-3-6c0-2.206 1.794-4 4-4s4 1.794 4 4-1.794 4-4 4-4-1.794-4-4zm37 6h2c3.521 0 6.442 2.612 6.929 6h-10.231c-.377-1.851-1.105-3.572-2.097-5.108 1.035-.579 2.19-.892 3.399-.892zm-3-6c0-2.206 1.794-4 4-4s4 1.794 4 4-1.794 4-4 4-4-1.794-4-4zm16 26h-18.836c2.965-2.742 4.836-6.652 4.836-11 0-.338-.029-.668-.051-1h12.051v-1c0-3.929-2.534-7.269-6.051-8.494 1.254-1.1 2.051-2.71 2.051-4.506 0-3.309-2.691-6-6-6s-6 2.691-6 6c0 1.792.794 3.398 2.043 4.499-.572.199-1.123.458-1.647.773-2.754-3.221-6.837-5.272-11.396-5.272-4.56 0-8.643 2.051-11.396 5.272-.525-.314-1.075-.574-1.647-.773 1.249-1.1 2.043-2.707 2.043-4.499 0-3.309-2.691-6-6-6s-6 2.691-6 6c0 1.796.797 3.406 2.051 4.506-3.517 1.225-6.051 4.565-6.051 8.494v1h12.051c-.022.332-.051.662-.051 1 0 3.008.898 5.806 2.429 8.157l-1.929 1.929-1.5-1.5-2.414 2.414h-10.586v-34h58zm0-36h-58v-6h58z"/><path d="m5 5h2v2h-2z"/><path d="m9 5h2v2h-2z"/><path d="m13 5h2v2h-2z"/><path d="m32 23c-6.065 0-11 4.935-11 11s4.935 11 11 11 11-4.935 11-11-4.935-11-11-11zm0 20c-4.963 0-9-4.037-9-9s4.037-9 9-9 9 4.037 9 9-4.037 9-9 9z"/><path d="m27 33h10v2h-10z"/><path d="m27 29h10v2h-10z"/><path d="m27 37h10v2h-10z"/><path d="m49 35h10v2h-10z"/><path d="m49 39h10v2h-10z"/><path d="m5 35h10v2h-10z"/><path d="m5 39h10v2h-10z"/><path d="m27 13h2v2h-2z"/><path d="m31 13h2v2h-2z"/><path d="m35 13h2v2h-2z"/></svg>